<svg id="Layer_1" data-name="Layer 1" xmlns="http://www.w3.org/2000/svg" xmlns:xlink="http://www.w3.org/1999/xlink" viewBox="0 0 195 122"><defs><style>.cls-1{fill:#fff;}.cls-2{fill:#cd2027;}.cls-3{fill:url(#linear-gradient);}.cls-4{fill:url(#linear-gradient-2);}.cls-5{fill:url(#linear-gradient-3);}.cls-6{fill:url(#linear-gradient-4);}.cls-7{fill:url(#linear-gradient-5);}.cls-8{fill:url(#linear-gradient-6);}.cls-9{fill:url(#linear-gradient-7);}.cls-10{fill:url(#linear-gradient-8);}.cls-11{fill:url(#linear-gradient-9);}.cls-12{fill:url(#linear-gradient-10);}.cls-13{fill:url(#linear-gradient-11);}.cls-14{fill:url(#linear-gradient-12);}.cls-15{fill:url(#radial-gradient);}.cls-16{fill:url(#linear-gradient-13);}.cls-17{fill:url(#linear-gradient-14);}.cls-18{fill:url(#linear-gradient-15);}.cls-19{fill:url(#linear-gradient-16);}.cls-20{fill:url(#linear-gradient-17);}.cls-21{fill:url(#linear-gradient-18);}.cls-22{fill:url(#linear-gradient-19);}.cls-23{fill:url(#linear-gradient-20);}.cls-24{fill:url(#linear-gradient-21);}.cls-25{fill:url(#linear-gradient-22);}.cls-26{fill:url(#linear-gradient-23);}.cls-27{fill:url(#linear-gradient-24);}.cls-28{fill:url(#linear-gradient-25);}.cls-29{fill:url(#linear-gradient-26);}.cls-30{fill:url(#linear-gradient-27);}.cls-31{fill:url(#linear-gradient-28);}.cls-32{fill:url(#linear-gradient-29);}.cls-33{fill:url(#linear-gradient-30);}.cls-34{fill:url(#linear-gradient-31);}.cls-35{fill:url(#linear-gradient-32);}.cls-36{fill:url(#linear-gradient-33);}.cls-37{fill:url(#linear-gradient-34);}.cls-38{fill:url(#linear-gradient-35);}.cls-39{fill:#0e151a;}</style><linearGradient id="linear-gradient" x1="22.2745" y1="69.2353" x2="35.97" y2="69.2353" gradientTransform="matrix(1, 0, 0, -1, 0, 124)" gradientUnits="userSpaceOnUse"><stop offset="0" stop-color="#fbc95c"/><stop offset="0.1" stop-color="#ac6e29"/><stop offset="0.36" stop-color="#fdf6af"/><stop offset="0.65" stop-color="#925924"/><stop offset="0.82" stop-color="#da984f"/><stop offset="1" stop-color="#925924"/></linearGradient><linearGradient id="linear-gradient-2" x1="37.617" y1="68.1694" x2="47.6047" y2="68.1694" xlink:href="#linear-gradient"/><linearGradient id="linear-gradient-3" x1="49.0812" y1="68.1704" x2="52.5358" y2="68.1704" xlink:href="#linear-gradient"/><linearGradient id="linear-gradient-4" x1="54.2526" y1="67.8916" x2="63.5075" y2="67.8916" xlink:href="#linear-gradient"/><linearGradient id="linear-gradient-5" x1="69.1973" y1="69.2343" x2="82.3076" y2="69.2343" xlink:href="#linear-gradient"/><linearGradient id="linear-gradient-6" x1="83.9545" y1="68.1694" x2="93.9422" y2="68.1694" xlink:href="#linear-gradient"/><linearGradient id="linear-gradient-7" x1="100.1037" y1="69.5121" x2="111.549" y2="69.5121" xlink:href="#linear-gradient"/><linearGradient id="linear-gradient-8" x1="110.4233" y1="68.1704" x2="122.8198" y2="68.1704" xlink:href="#linear-gradient"/><linearGradient id="linear-gradient-9" x1="123.4389" y1="68.0666" x2="134.4405" y2="68.0666" xlink:href="#linear-gradient"/><linearGradient id="linear-gradient-10" x1="135.7496" y1="68.1694" x2="146.9925" y2="68.1694" xlink:href="#linear-gradient"/><linearGradient id="linear-gradient-11" x1="148.1959" y1="68.1694" x2="159.6591" y2="68.1694" xlink:href="#linear-gradient"/><linearGradient id="linear-gradient-12" x1="161.1516" y1="68.1694" x2="172.7256" y2="68.1694" xlink:href="#linear-gradient"/><radialGradient id="radial-gradient" cx="163.4562" cy="48.8023" r="15.4781" gradientTransform="matrix(1.0852, 0, 0, -1.1234, -79.9799, 88.8312)" gradientUnits="userSpaceOnUse"><stop offset="0" stop-color="#eb2227"/><stop offset="1" stop-color="#4f1211"/></radialGradient><linearGradient id="linear-gradient-13" x1="92.7579" y1="102.2653" x2="104.0213" y2="72.9232" gradientTransform="matrix(1, 0, 0, -1, 0, 124)" gradientUnits="userSpaceOnUse"><stop offset="0" stop-color="#fbc95c"/><stop offset="0.13" stop-color="#a15725"/><stop offset="0.37" stop-color="#fefad6"/><stop offset="0.49" stop-color="#914b21"/><stop offset="0.62" stop-color="#be8734"/><stop offset="0.78" stop-color="#a14c26"/><stop offset="1" stop-color="#fbc95c"/></linearGradient><linearGradient id="linear-gradient-14" x1="86.8098" y1="90.2581" x2="106.7938" y2="90.2581" gradientTransform="matrix(1, 0, 0, -1, 0, 124)" gradientUnits="userSpaceOnUse"><stop offset="0" stop-color="#fbc95c"/><stop offset="0.18" stop-color="#ac6e29"/><stop offset="0.54" stop-color="#fdf6af"/><stop offset="0.82" stop-color="#da984f"/><stop offset="1" stop-color="#fbe284"/></linearGradient><linearGradient id="linear-gradient-15" x1="47.7293" y1="53.0931" x2="68.7736" y2="53.0931" xlink:href="#linear-gradient-14"/><linearGradient id="linear-gradient-16" x1="61.7538" y1="51.3251" x2="68.0059" y2="51.3251" xlink:href="#linear-gradient-14"/><linearGradient id="linear-gradient-17" x1="65.1844" y1="50.7079" x2="68.643" y2="50.7079" xlink:href="#linear-gradient-14"/><linearGradient id="linear-gradient-18" x1="66.983" y1="51.7375" x2="73.0566" y2="51.7375" xlink:href="#linear-gradient-14"/><linearGradient id="linear-gradient-19" x1="72.5073" y1="50.0047" x2="77.3635" y2="50.0047" xlink:href="#linear-gradient-14"/><linearGradient id="linear-gradient-20" x1="76.7803" y1="51.7231" x2="83.9575" y2="51.7231" xlink:href="#linear-gradient-14"/><linearGradient id="linear-gradient-21" x1="81.9287" y1="50.0063" x2="86.1449" y2="50.0063" xlink:href="#linear-gradient-14"/><linearGradient id="linear-gradient-22" x1="88.5476" y1="52.9222" x2="105.7744" y2="52.9222" xlink:href="#linear-gradient-14"/><linearGradient id="linear-gradient-23" x1="97.0559" y1="50.04" x2="101.621" y2="50.04" xlink:href="#linear-gradient-14"/><linearGradient id="linear-gradient-24" x1="101.0168" y1="50.0068" x2="106.7106" y2="50.0068" xlink:href="#linear-gradient-14"/><linearGradient id="linear-gradient-25" x1="106.1294" y1="51.7231" x2="113.3086" y2="51.7231" xlink:href="#linear-gradient-14"/><linearGradient id="linear-gradient-26" x1="111.0525" y1="50.8257" x2="114.3185" y2="50.8257" xlink:href="#linear-gradient-14"/><linearGradient id="linear-gradient-27" x1="113.5469" y1="50.7079" x2="117.0064" y2="50.7079" xlink:href="#linear-gradient-14"/><linearGradient id="linear-gradient-28" x1="115.9994" y1="50.8257" x2="119.2645" y2="50.8257" xlink:href="#linear-gradient-14"/><linearGradient id="linear-gradient-29" x1="118.7172" y1="50.0047" x2="123.5725" y2="50.0047" xlink:href="#linear-gradient-14"/><linearGradient id="linear-gradient-30" x1="123.1547" y1="50.0068" x2="129.3938" y2="50.0068" xlink:href="#linear-gradient-14"/><linearGradient id="linear-gradient-31" x1="128.9651" y1="50.0068" x2="135.2032" y2="50.0068" xlink:href="#linear-gradient-14"/><linearGradient id="linear-gradient-32" x1="134.6419" y1="50.0063" x2="138.8581" y2="50.0063" xlink:href="#linear-gradient-14"/><linearGradient id="linear-gradient-33" x1="138.1144" y1="51.7375" x2="142.6626" y2="51.7375" xlink:href="#linear-gradient-14"/><linearGradient id="linear-gradient-34" x1="140.4922" y1="51.7375" x2="145.0404" y2="51.7375" xlink:href="#linear-gradient-14"/><linearGradient id="linear-gradient-35" x1="143.0534" y1="50.0063" x2="147.2697" y2="50.0063" xlink:href="#linear-gradient-14"/></defs><title>logo_v2</title><rect class="cls-1" width="195" height="122"/><rect class="cls-2" x="11.6308" y="11.4767" width="171.7385" height="76.6557"/><path class="cls-3" d="M29.0988,48.6219A7.0226,7.0226,0,0,1,34.0408,50.3a6.1521,6.1521,0,0,1,1.003,7.721q-1.8066,2.8875-5.9271,2.887a6.9788,6.9788,0,0,1-4.9141-1.6785,5.86,5.86,0,0,1-1.4835-2.1477,6.14,6.14,0,0,1-.4446-2.3216,6.0713,6.0713,0,0,1,.9162-3.2607Q24.9435,48.674,29.0988,48.6219Zm.01,2.0175a4.1167,4.1167,0,0,0-2.8394,1.0087,4.2883,4.2883,0,0,0,0,6.2373,4.5365,4.5365,0,0,0,5.7017,0,3.959,3.959,0,0,0,1.0309-1.4689,4.21,4.21,0,0,0,.313-1.5981A3.952,3.952,0,0,0,31.97,51.6491,4.2652,4.2652,0,0,0,29.1088,50.6394Z" transform="translate(0 0)"/><path class="cls-4" d="M40.5132,56.5616v2.3732h6.2032a.6339.6339,0,0,0,.4138-.1192.8484.8484,0,0,0,.2312-.4363h.2433v2.8781h-.2433a.8248.8248,0,0,0-.2273-.4313.6279.6279,0,0,0-.4187-.1253H37.617v-.2444a.8155.8155,0,0,0,.4317-.2266.6269.6269,0,0,0,.1266-.4165V51.8469a.6065.6065,0,0,0-.1216-.4085.9474.9474,0,0,0-.4367-.2336V50.96h8.8272a.634.634,0,0,0,.4227-.1213.8569.8569,0,0,0,.2313-.4353h.2353v2.8781h-.2353a.8624.8624,0,0,0-.2313-.4362.64.64,0,0,0-.4227-.12h-5.932v2.14h3.6809a.6289.6289,0,0,0,.4147-.1222.9066.9066,0,0,0,.24-.4353h.2333v2.8085h-.2333a.8891.8891,0,0,0-.2313-.4333.6335.6335,0,0,0-.4237-.1232h-3.68Z" transform="translate(0 0)"/><path class="cls-5" d="M51.9775,51.8469v7.9575a.62.62,0,0,0,.1216.4134.9245.9245,0,0,0,.4367.2376V60.7H49.0812v-.2444a.8151.8151,0,0,0,.4317-.2266.6212.6212,0,0,0,.1277-.4165V51.8459a.6061.6061,0,0,0-.1227-.4085.9357.9357,0,0,0-.4367-.2336v-.2444h3.4546v.2444a.8865.8865,0,0,0-.4367.2286A.6269.6269,0,0,0,51.9775,51.8469Z" transform="translate(0 0)"/><path class="cls-6" d="M57.15,58.9338h5.4694a.6334.6334,0,0,0,.4187-.1192.9193.9193,0,0,0,.2343-.4363h.2353v2.8781h-.2353a.8853.8853,0,0,0-.23-.4353.6452.6452,0,0,0-.4227-.12H54.2526v-.2445a.8312.8312,0,0,0,.4327-.2266.6212.6212,0,0,0,.1266-.4164V51.8469a.601.601,0,0,0-.1227-.4085.9411.9411,0,0,0-.4366-.2335V50.96h3.4555v.2445a.87.87,0,0,0-.4367.2295.6218.6218,0,0,0-.1216.4125Z" transform="translate(0 0)"/><path class="cls-7" d="M69.7546,59.7875V49.7449a.6125.6125,0,0,0-.1206-.4094.9156.9156,0,0,0-.4367-.2266v-.2783h6.6418a8.9087,8.9087,0,0,1,3.3519.4959,4.77,4.77,0,0,1,2.48,2.3822,6.8666,6.8666,0,0,1,.6371,3.0521,5.7967,5.7967,0,0,1-1.8933,4.6779,4.7894,4.7894,0,0,1-1.8594.971,10.5472,10.5472,0,0,1-2.7157.2911H69.1973v-.2782a.895.895,0,0,0,.4367-.2276A.6088.6088,0,0,0,69.7546,59.7875Zm2.6-1.0445h3.2661a5.0525,5.0525,0,0,0,2.3479-.4263q1.6854-.9124,1.6849-3.5559a4.2554,4.2554,0,0,0-.9083-2.93,2.8067,2.8067,0,0,0-1.2232-.805,6.1822,6.1822,0,0,0-1.9023-.24H72.3537V58.743Z" transform="translate(0 0)"/><path class="cls-8" d="M86.8528,56.5616v2.3732h6.2a.633.633,0,0,0,.4147-.1192.8411.8411,0,0,0,.2313-.4363h.2432v2.8781H93.699a.84.84,0,0,0-.2263-.4313.63.63,0,0,0-.4207-.1253H83.9545v-.2444a.8191.8191,0,0,0,.4317-.2266.621.621,0,0,0,.1267-.4165V51.8469a.6007.6007,0,0,0-.1217-.4085.9464.9464,0,0,0-.4366-.2336V50.96h8.8282a.638.638,0,0,0,.4228-.1213.8652.8652,0,0,0,.2312-.4353h.2353v2.8781h-.2353a.87.87,0,0,0-.2312-.4362.6418.6418,0,0,0-.4228-.12h-5.932v2.14h3.6808a.6341.6341,0,0,0,.4147-.1222.897.897,0,0,0,.2373-.4353h.2373v2.8085h-.2373a.88.88,0,0,0-.2293-.4333.6306.6306,0,0,0-.4227-.1232H86.8528Z" transform="translate(0 0)"/><path class="cls-9" d="M103.262,55.5081v4.2794a.5979.5979,0,0,0,.1267.4125.8353.8353,0,0,0,.4307.2226v.2782h-3.7157v-.2782a.8819.8819,0,0,0,.4346-.2276.5965.5965,0,0,0,.1247-.4075V49.7449a.6019.6019,0,0,0-.1247-.4094.8918.8918,0,0,0-.4346-.2266v-.2783h10.538a.597.597,0,0,0,.4008-.1193.886.886,0,0,0,.2263-.4362h.28v3.07h-.28a.8824.8824,0,0,0-.2263-.4373.6006.6006,0,0,0-.4008-.1193h-7.38v2.8354h4.8253a.5994.5994,0,0,0,.4088-.1232.927.927,0,0,0,.2283-.4333h.2782v3h-.2782a.9168.9168,0,0,0-.2283-.4333.6.6,0,0,0-.4088-.1242H103.262Z" transform="translate(0 0)"/><path class="cls-10" d="M118.6374,58.265H114.145l-.5064,1.06a1.513,1.513,0,0,0-.1834.6c0,.2772.1854.4551.5573.53V60.7h-3.5892v-.2444a.9251.9251,0,0,0,.4925-.2,2.1853,2.1853,0,0,0,.38-.5824l3.5672-7.2a1.65,1.65,0,0,0,.2-.7136c0-.2365-.1615-.4223-.4886-.5555v-.2445H118.37v.2445a.6331.6331,0,0,0-.4785.5913,1.5825,1.5825,0,0,0,.2183.7036l3.6978,6.9827a3.4383,3.4383,0,0,0,.4786.7364,1.0268,1.0268,0,0,0,.5334.2365v.2445h-3.99v-.2445c.3758-.0636.5643-.2385.5643-.5277a1.455,1.455,0,0,0-.2184-.6669ZM117.9346,56.9l-1.6-3.1326L114.812,56.9Z" transform="translate(0 0)"/><path class="cls-11" d="M133.88,51.8469v5.1569a3.9615,3.9615,0,0,1-.6968,2.59q-1.1247,1.3134-4.2392,1.3138a7.63,7.63,0,0,1-3.3688-.635,2.49,2.49,0,0,1-1.2642-1.3139,5.2618,5.2618,0,0,1-.313-1.9558V51.8459a.6014.6014,0,0,0-.1226-.4085.9468.9468,0,0,0-.4367-.2336v-.2444h3.4545v.2444a.8559.8559,0,0,0-.4376.23.6266.6266,0,0,0-.1207.4125v4.6878a4.2,4.2,0,0,0,.1446,1.2523,1.4768,1.4768,0,0,0,.5024.7135,4.0656,4.0656,0,0,0,4.1335,0,1.4636,1.4636,0,0,0,.4885-.7135,4.2894,4.2894,0,0,0,.1406-1.2523V51.8459a.6226.6226,0,0,0-.1186-.4085.9132.9132,0,0,0-.44-.2336v-.2444h3.2541v.2444a.8742.8742,0,0,0-.4366.23A.6171.6171,0,0,0,133.88,51.8469Z" transform="translate(0 0)"/><path class="cls-12" d="M145.517,57.2046l1.4745,2.1476-.2.1481a.6389.6389,0,0,0-.331-.1481,2.0764,2.0764,0,0,0-.6889.321,9.9315,9.9315,0,0,1-2.1086.966,7.5383,7.5383,0,0,1-2.1126.2693,6.3006,6.3006,0,0,1-3.8982-1.1389,4.76,4.76,0,0,1-1.3608-1.6358A5.0046,5.0046,0,0,1,135.75,55.83a4.8712,4.8712,0,0,1,.995-3.0262,5.6322,5.6322,0,0,1,4.7885-2.0513,7.63,7.63,0,0,1,2.1246.2694,9.6616,9.6616,0,0,1,2.1145.965,2.0757,2.0757,0,0,0,.689.322.6531.6531,0,0,0,.331-.1471l.2.157-1.4745,2.13-.19-.1382a.7494.7494,0,0,1,.0179-.13c.006-.0527.01-.0894.01-.1123,0-.2832-.3948-.6022-1.1784-.961a5.3685,5.3685,0,0,0-2.2512-.5109,4.0205,4.0205,0,0,0-2.6171.8329,3.0465,3.0465,0,0,0,0,4.8131,4.0724,4.0724,0,0,0,2.6171.8238,5.4658,5.4658,0,0,0,2.4695-.6171q.9587-.486.96-.8517c0-.0129-.01-.0924-.0269-.2435Z" transform="translate(0 0)"/><path class="cls-13" d="M153.9135,50.7527A6.2381,6.2381,0,0,1,157.8,51.9343a4.7259,4.7259,0,0,1,1.8593,3.9733A4.5707,4.5707,0,0,1,157.8,59.7259a6.9174,6.9174,0,0,1-7.7366,0,4.9976,4.9976,0,0,1,0-7.7916A6.366,6.366,0,0,1,153.9135,50.7527Zm.01,1.8425a3.3053,3.3053,0,0,0-2.4635.965,3.3492,3.3492,0,0,0,0,4.5308,3.6152,3.6152,0,0,0,4.935,0,3.0392,3.0392,0,0,0,.8843-2.2172,3.1242,3.1242,0,0,0-.8843-2.3136A3.4354,3.4354,0,0,0,153.9235,52.5952Z" transform="translate(0 0)"/><path class="cls-14" d="M163.8365,54.2827v5.5237a.6224.6224,0,0,0,.1266.4164.853.853,0,0,0,.4327.2336v.2444h-3.2442v-.2444a.816.816,0,0,0,.4307-.2266.6263.6263,0,0,0,.1266-.4165V51.8469a.6008.6008,0,0,0-.1226-.4085.9271.9271,0,0,0-.4347-.2336V50.96h3.7507v.2444c-.2553.0626-.3839.177-.3839.34a.762.762,0,0,0,.28.486l5.24,5.1818V51.8479a.6059.6059,0,0,0-.1226-.4125.8463.8463,0,0,0-.4367-.23v-.2444h3.2462v.2444a.8823.8823,0,0,0-.4367.2286.6211.6211,0,0,0-.1226.4135v7.9575a.6208.6208,0,0,0,.1226.4134.92.92,0,0,0,.4367.2376v.2444h-3.4994v-.2444c.2552-.0517.3838-.1571.3838-.3181a.3973.3973,0,0,0-.1047-.2514c-.07-.0845-.2283-.2554-.4785-.5078Z" transform="translate(0 0)"/><path class="cls-15" d="M97.4536,24.1887c7.6488,0,13.8939,4.3867,13.8939,9.7723,0,5.3746-6.2451,9.7613-13.8939,9.7613-7.6578,0-13.9008-4.3867-13.9008-9.7613C83.5528,28.5754,89.7958,24.1887,97.4536,24.1887Z" transform="translate(0 0)"/><path class="cls-16" d="M97.4536,23.4105c8.1633,0,14.8121,4.7356,14.8121,10.55,0,5.8059-6.65,10.5415-14.8121,10.5415-8.1583,0-14.82-4.7366-14.82-10.5415C82.6346,28.1461,89.2954,23.4105,97.4536,23.4105ZM84.6843,33.96c0,4.7545,5.7337,8.6353,12.7694,8.6353,7.0277,0,12.7623-3.8808,12.7623-8.6353,0-4.7634-5.7347-8.6443-12.7623-8.6443C90.419,25.3157,84.6843,29.1966,84.6843,33.96Z" transform="translate(0 0)"/><path class="cls-17" d="M106.7983,33.0705l-.02-.1153-.0289-.1143-.0409-.1123-.0508-.1093-.0588-.1073-.0718-.1064-.0758-.1013-.0857-.0994-.0917-.0984-.1-.0924-.1067-.0925-.1146-.0894-.1207-.0845-.1306-.0815-.1326-.0775-.1406-.0765-.1445-.0706-.15-.0666-.1476-.0626-.1386-.0606-.1286-.0577-.1246-.0536-.008-.003v-.0547l-.006-.0695-.0179-.0636-.023-.0636-.0329-.0607-.0368-.06-.0429-.0547-.0469-.0546-.0548-.0507-.0608-.0467-.0608-.0477-.0659-.0437-.0717-.0458-.0718-.04-.0778-.0418-.0817-.0377-.0838-.0358-.0857-.0338-.09-.0338-.0938-.03-.0937-.0318-.0957-.0278-.1-.0258-.1-.0249-.1017-.0228-.1017-.0209-.1036-.02-.1037-.0208-.1047-.015-.1017-.0129-.1067-.0129-.1037-.0109-.2981-.0239-.2881-.0179-.2821-.0149-.2742-.0069-.2612-.001-.2592.0039-.2553.01-.2452.0139-.2413.0219-.2333.0268-.2283.0288-.2263.0368-.2223.0427L98.73,30.09l-.2144.0547-.2124.0586-.21.0626-.2114.07-.2064.0726-.2043.08-.2044.0845-.2064.09-.2063.0944-.2064.0994-.2064.1043-.21.1093-.21.1143-.2124.1193-.2183.1242-.2223.1292-.2244.1342-.2263.1381-.1944.1183-.1854.1183-.1835.1163-.1774.1162-.1775.1153-.1695.1123-.1755.1113-.1714.11-.1715.1084-.1735.1053-.1795.1044-.1794.1033-.1855.0984L92.4,33.37l-.1944.0954-.2043.0934-.2144.0914-.2243.0885-.2313.0874-.2433.0815-.2572.0805-.2692.0765-.2841.0716-.3.0725-.313.0656-.331.0636-.351.06-.37.0546-.3879.0537-.4107.0477-.4307.0437-.4536.0378h-.006l-.008.002-.006.001-.006.001-.006.0039-.006.002-.006.003-.0059.002-.004.003-.006.003-.006.0029-.006.004-.004.004-.004.005-.004.0039-.004.005-.006.005-.002.004-.0039.0059-.004.005-.002.006-.002.0039-.0021.007-.002.0069-.0039.007v.003l-.0021.0079-.002.006v.0337l.002.005.0021.007V34.8l.0039.008.002.0039.004.007v.005l.004.0069.004.004.002.006.004.0049.004.004.006.005.004.005.0039.0029.004.004.006.004.004.0029.006.003.004.004.006.003h.008l.0039.0039.008.002.004.001.008.002h.006l.006.002h.02l.46-.0407.4327-.0417.4128-.05.3937-.0517.3739-.0566.354-.0626.3369-.0626.3191-.0676.3051-.0726.29-.0745.2741-.0785.2632-.0805.2513-.0865.2373-.0864.2293-.0925.2183-.0934.21-.0964.2024-.0994.1944-.1013.19-.1024.1835-.1063.1794-.1064.18-.1083.1754-.1083.1735-.1113.1735-.11.1735-.1153.1754-.1143.1755-.1153.1815-.1143.1854-.1172.19-.1183.2263-.1372.2244-.1331.2183-.1282.2143-.1233.21-.1192.2084-.11.2064-.1083.2043-.1014.2-.0984.2-.0944.2024-.0875.2-.0815.1984-.0775.2024-.0725.2034-.0656L98.37,30.45l.2064-.0557.2084-.0517.2113-.0487.2164-.0407.22-.0348.2224-.03.2293-.0259.2333-.02.2392-.0149.2433-.009.2572-.005.2612.001.2672.007.2762.0139.2841.0189.2921.0239.1017.01.0977.0109.1017.0129.1.0159.1.0189.1.0189.0977.02.0957.0219.0957.0248.0918.0258.0917.0249.0877.0288.0858.03.0837.0308.08.0318.08.0338.0738.0338.0678.0348.0658.0368.0628.0377.0568.04.0509.0377.0468.04.0429.04.0349.0388.0309.0377.023.0378.0209.0368.012.0368h0l-.0569-.0249-.1017-.0387-.0957-.0358-.0877-.0358-.09-.0278-.0837-.0268-.0838-.0229-.0817-.02-.08-.0149-.0757-.0109-.08-.009-.08-.0049h-.0778l-.0778.0069-.0817.007-.0818.0139-.0837.0159-.0858.02-.0877.0248-.0937.0269-.0937.03-.1017.0357-.1047.0388-.1107.0437-.1146.0467-.1226.0507h0l-.008.004-.006.003-.006.002-.004.003-.006.0039-.0059.006-.0021.003-.0079.004-.004.0039-.002.006-.004.0059-.004.005-.002.004-.004.005-.002.0059-.004.006-.004.0059v.013l-.004.0059v.005l-.002.007v.0248l.002.006.0021.0069.002.005v.009l.004.0049.002.007.0039.0059.0369.0706.0449.0646.0548.0626.0569.0587.0628.0506.0658.0478.0717.0437.0718.04.08.0338.0777.0308.0858.0269.0857.0228.0857.0169.09.0169.09.01.0917.008.0918.002.0917-.002.0937-.004.0917-.0079.09-.013.0937-.0169.0877-.0208.09-.0239.0858-.0288.0857-.0318.08-.0368.08-.0407.0738-.0467.0738-.0507.0658-.0537.0588-.0517.004-.0039.002-.003.006-.006.002-.0059.004-.004.006-.007.0039-.0039.0021-.007.0289-.0567.01.006.1227.0517.1306.0576.1386.0606.1475.0627.1406.0646.1366.0675.1346.0706.1226.0725.1226.0756.1107.0795.1046.0815L106,32.203l.0938.0864.0817.0885.0758.0885.0638.0884.0628.09.0488.0914.0429.0914.0309.0914.0249.0934.018.0925.006.0924-.004.0924-.01.0944-.0229.0954-.0309.0945-.0449.0954-.0529.0974-.0658.0984-.0757.0974-.0918.0983-.1017.0984-.0638.0547.0021-.0139.0079-.0368.006-.0378.006-.0387.002-.0378V33.974l-.004-.04-.004-.0387-.0079-.0378-.012-.0377-.0119-.0378-.016-.0388-.0179-.0367-.018-.0378-.0209-.0368-.023-.04-.0269-.0388-.0249-.0367-.0329-.04-.0309-.04-.0369-.0388-.0349-.04-.006-.005-.004-.005-.006-.004.0009-.012-.006-.003-.006-.005-.0059-.003-.006-.0029-.006-.004h-.006l-.004-.003-.006-.001-.006-.002h-.0459l-.006.002-.004.001h-.004l-.0429.0149-.0448.0109-.0389.009-.0369.0069-.0369.009-.0349.004-.0329.0039-.0328.003-.031.001H105.2l-.0329-.001-.0289-.002-.0269-.0039-.0289-.004-.0269-.004-.027-.0059L105,33.3468l-.0309-.007-.0278-.0069-.0309-.01-.0289-.008-.0329-.0109-.0309-.01-.0349-.01-.0349-.0129-.0368-.0119-.0389-.0119-.0369-.014-.0409-.0109-.0408-.0129-.0429-.0129-.0468-.013.0059.003-.0917-.0288-.0857-.0229-.0878-.0208-.0817-.0169-.0758-.0139-.0778-.011-.0757-.0059-.07-.004h-.0718l-.0658.004-.0678.0059-.0638.011-.0638.0129-.0608.0149-.0628.0179-.0608.0219-.0588.0218-.0569.0239-.0548.0258-.0568.0288-.0549.03-.0568.0328-.0528.0337-.0569.0348-.0548.0368-.0568.0378-.0569.0367-.0568.0388-.0608.0427-.0608.0418-.0609.04-.0638.0438-.002.0029-.006.005-.006.003-.0977.0865-.0957.0884-.0977.0875-.09.0884-.0917.09-.0918.0914-.09.09-.0837.0914-.0878.0924-.0817.0944-.0778.0934-.0818.0944-.08.0974-.0718.0945-.0738.0983-.0717.0974-.07.0994-.07.0984-.0638.1014-.0638.1013-.0638.1014-.0569.1033-.0588.1034-.0588.1024-.0528.1063-.0529.1063-.0508.1054-.0469.1083-.0449.1093-.0428.1093-.0409.11-.0369.1113-.002.006-.006.006v.005l-.1146.59-.002.004v.0407l.002.005v.0059l.004.006.002.007.002.0049.002.006.002.004.004.0069.002.006.004.004.006.0069.002.003.006.004.002.0059.006.004.006.001.006.006.004.003.0059.0029.004.004.008.001.004.003.006.0029.008.001.0039.001.008.002h.006l.008.0011h.012l.006-.0011h.006l.0059-.002.008-.001.004-.001.006-.0029.008-.002.006-.002.0039-.004.004-.001.008-.005.004-.004.004-.0029.004-.004.006-.004.0059-.0059.004-.003.004-.007.002-.0029.004-.007.002-.0069.002-.004.004-.006.004-.0049v-.007l.004-.006v-.0069l.1146-.58.0349-.1014.0369-.1043.0429-.1054.0449-.1033.0428-.1034.0489-.1034.0488-.1023.0529-.1014.0548-.1013.0548-.1.0569-.0954.0608-.1.0628-.0984.0638-.0964.0638-.0954.07-.0944.0678-.0945.07-.0944.0757-.0924.0718-.0924.08-.0934.0777-.0894.08-.0915.0817-.09.0858-.0885.0837-.0884.09-.0875.09-.0884.09-.0865.0917-.0845.0937-.0865.09-.0785.0588-.04.0638-.0427.0608-.0428.0588-.04.0568-.0408.0589-.0367.0528-.0348.0529-.0358.0508-.0318.0508-.0318.0509-.0278.0488-.0289.0469-.0228.0508-.0239.0489-.0208.0489-.0209.0488-.0159.0509-.0149.0508-.0129.0509-.009.0528-.0079.0548-.007.0588-.004h.0589l.0608.004.0638.007.0678.0079.0658.0119.0757.014.0758.02.08.0209.08.0239h0l.004.0029.0079.001.0429.013.0389.0119.0409.0119.0388.0109.0369.013.0369.01.0369.0139.0329.01.0348.012.0349.01.0329.0129.0349.008.0329.0089.0309.0119.0369.007.0349.0089.0329.007.0369.005.0349.0059.0368.004.0369.002.0369.001h.0409l.0408-.002.0369-.001.0449-.006.0428-.0059.0449-.01.0429-.008.0449-.0109.0229-.005.014.0149.0269.0338.0269.0328.023.0308.02.03.0179.0289.016.0278.014.0288.0119.0239.01.0258.01.0229.004.0248.01.0238.002.0249.0021.0228v.05l-.0021.0249-.002.0258-.0039.0288-.008.0279-.008.03-.01.0308-.01.0328-.01.0338-.014.0348-.014.0367-.0159.0388-.0159.0387-.018.0428-.0179.0407h0l-.0021.0069-.002.005-.002.006v.006l-.004.0079v.0428l.004.0059v.007l.002.0049.002.005.0021.007.002.0079.002.005.004.006.0039.0039.004.007.004.004.004.0039.006.004.004.006.004.0049.006.003.0059.003.006.003.004.0029.006.002.006.003.006.003.006.002.006.001h.006l.006.002h.006l.004.001h.01l.004-.001h.008l.008-.002h.006l.002-.001.01-.002.0039-.003.006-.003.006-.002.006-.0029.006-.003.1535-.1053.1426-.1034.1246-.1073.1167-.11.1037-.1094.0877-.1133.0758-.1133.0638-.1152.0528-.1163.0409-.1183.0269-.1183.016-.1182.004-.1183Zm-2.646-1.7034-.0568.0388-.0638.0377-.0658.0358-.0658.03-.0718.0268-.0758.0239-.0757.0209-.0778.0208-.08.0139-.0818.011-.08.0069-.08.006-.0857.001-.08-.005-.0817-.003-.0758-.0109-.08-.0129-.0738-.0179-.0738-.0189-.07-.0209-.0658-.0258-.0638-.03-.0608-.0308-.0568-.0338-.0509-.0368-.0468-.04-.0449-.0418-.02-.0238.0957-.0368.1066-.0427.1037-.0388.0957-.0318.09-.0278.0857-.0269.08-.0218.0757-.0179.0738-.0159.07-.011.0678-.0069.0678-.003.0638-.001.0658.004.0658.0069.0678.01.0678.0129.07.0189.0737.02.08.0239.0838.0268.0837.0338.0917.0338.0958.0388.0837.0337-.01.02-.0368.0358Z" transform="translate(0 0)"/><path class="cls-18" d="M68.7736,68.65a2.3529,2.3529,0,0,1-.0619.5457c-.04.1749-.0827.2623-.1276.2623-.0329,0-.05-.0119-.05-.0387l.0149-.0586a1.7634,1.7634,0,0,0,.1077-.68,2.0856,2.0856,0,0,0-.7687-1.6309,2.7681,2.7681,0,0,0-1.8773-.6678,5.4944,5.4944,0,0,0-3.67,1.7511,13.9159,13.9159,0,0,0-1.2752,1.3357q-.5144.6171-2.0149,2.6048a13.0926,13.0926,0,0,1-3.6389,3.6593,2.67,2.67,0,0,1-.8186.324c-.0289,0-.0438-.0159-.0438-.0507.0059-.004.0558-.0428.1515-.1143a3.6827,3.6827,0,0,0,1.1316-1.4172q.3933-.8184,1.4077-3.8709a9.7348,9.7348,0,0,1,1.972-3.7309.1308.1308,0,0,0,.0439-.0715q-.0942-.03-.4277.3111a16.494,16.494,0,0,0-2.5393,3.8451,18.6468,18.6468,0,0,1-1.5782,2.5859,7.6242,7.6242,0,0,1-1.6131,1.5434,5.2924,5.2924,0,0,1-3.0907,1.0972,2.9069,2.9069,0,0,1-1.642-.4214,1.2624,1.2624,0,0,1-.6361-1.0892.9422.9422,0,0,1,.2184-.6331.6829.6829,0,0,1,.5433-.2564.4138.4138,0,0,1,.4716.4641.5932.5932,0,0,1-.1525.4075.4867.4867,0,0,1-.3729.169q-.3574,0-.3569-.3906c0-.0954-.02-.1441-.0589-.1441-.0777,0-.1166.1342-.1166.3975a1.1287,1.1287,0,0,0,.5912.973,2.7771,2.7771,0,0,0,1.52.3786,5.1649,5.1649,0,0,0,3.7167-1.9588,12.8159,12.8159,0,0,0,1.2413-1.5375q.5083-.7453,2.0248-3.2547a11.7049,11.7049,0,0,1,1.4417-1.931q.8-.8646,1.1425-.8657c.0329,0,.0508.014.0508.0428a.1784.1784,0,0,1-.0289.0586A7.0222,7.0222,0,0,0,58.387,69.377a23.1362,23.1362,0,0,1-1.5294,4.3679,5.1386,5.1386,0,0,1-1.8284,2.0184c-.018.004-.0279.0139-.0279.0288a.0886.0886,0,0,0,.0279.014,2.3219,2.3219,0,0,0,.8115-.4622,7.9018,7.9018,0,0,0,1.4436-1.3158q.658-.7662,2.3918-3.1385a29.473,29.473,0,0,1,1.9461-2.4557,9.2913,9.2913,0,0,1,1.5992-1.37,4.9337,4.9337,0,0,1,2.7626-.9183,2.8942,2.8942,0,0,1,2.0049.7066A2.32,2.32,0,0,1,68.7736,68.65Zm-11.49-.4054c0,.1043-.1386.312-.4138.6231a1.7074,1.7074,0,0,1-1.2053.7026.8876.8876,0,0,1-.675-.2931.9987.9987,0,0,1-.2771-.7186,2.2609,2.2609,0,0,1,.2981-.99,2.7729,2.7729,0,0,0,.3689-1.0207.6807.6807,0,0,0-.347-.5923,1.6705,1.6705,0,0,0-.9142-.2236,4.4409,4.4409,0,0,0-3.0388,1.3009,3.76,3.76,0,0,0-1.4217,2.7678,1.6946,1.6946,0,0,0,.47,1.24,1.6022,1.6022,0,0,0,1.2.481,2.7125,2.7125,0,0,0,1.325-.3727,3.2177,3.2177,0,0,0,1.0847-.959c.02-.0229.0339-.0348.0439-.0348.0389,0,.0578.0208.0578.0636,0,.0974-.1545.2812-.4636.5575a3.051,3.051,0,0,1-2.0767.86,1.7053,1.7053,0,0,1-1.2771-.5069,1.7981,1.7981,0,0,1-.4935-1.3138,3.8515,3.8515,0,0,1,1.4546-2.8841,4.642,4.642,0,0,1,3.1783-1.3158,1.6329,1.6329,0,0,1,1.1137.3528,1.2329,1.2329,0,0,1,.4017.9779,3.6693,3.6693,0,0,1-.4635,1.4072,1.3549,1.3549,0,0,0-.16.5278q0,.55.5962.55a1.3528,1.3528,0,0,0,.7956-.34,2.6641,2.6641,0,0,0,.7079-.8348c.0239-.0487.0488-.0716.0718-.0716A.0525.0525,0,0,1,57.2834,68.245ZM65.2861,66.69c0,.0249-.0638.07-.1944.1382a4.574,4.574,0,0,0-1.4924,1.2929,15.3193,15.3193,0,0,0-1.4716,2.5949,17.4739,17.4739,0,0,1-2.1495,3.6593,5.3157,5.3157,0,0,1-2.3389,1.5971,7.3939,7.3939,0,0,0,.994.0973,3.0268,3.0268,0,0,0,1.7866-.474A10.461,10.461,0,0,0,62.3161,73.47c.0539-.0656.0937-.1014.1237-.1014a.0391.0391,0,0,1,.0289.0428,6.2039,6.2039,0,0,1-.683.9332,5.9082,5.9082,0,0,1-1.4914,1.442,3.1637,3.1637,0,0,1-1.6141.3826,6.7629,6.7629,0,0,1-1.2841-.1341,3.114,3.114,0,0,1-.993.1629c-.2573,0-.3859-.0487-.3859-.1471,0-.1222.1795-.1808.5364-.1808a5.4632,5.4632,0,0,1,.7836.0715h.0947A3.1212,3.1212,0,0,0,58.733,75.07a10.5953,10.5953,0,0,0,1.28-2.0125,34.8545,34.8545,0,0,1,2.4007-4.0627,8.4887,8.4887,0,0,1,2.0518-1.9529,2.1689,2.1689,0,0,1,.7757-.3956C65.2712,66.6469,65.2861,66.6608,65.2861,66.69Z" transform="translate(0 0)"/><path class="cls-19" d="M65.9711,73.6156a.8926.8926,0,0,1-.1306.1878l-.3121.3886Q64.0269,76.04,62.9522,76.04a1.1266,1.1266,0,0,1-.8524-.3647,1.28,1.28,0,0,1-.346-.9143q0-1.3014,1.8205-2.2928a3.53,3.53,0,0,1,1.5593-.52.6774.6774,0,0,1,.4457.1551.4818.4818,0,0,1,.1844.3806c0,.3478-.2273.642-.6819.8855a8.9321,8.9321,0,0,1-2.2761.6837,2.4208,2.4208,0,0,0-.4935,1.2443c0,.4134.2263.6211.6759.6211q1.1486,0,2.8085-2.23c.0588-.0775.1057-.1143.1455-.1143C65.9611,73.5768,65.9711,73.5908,65.9711,73.6156Zm-.6132-1.3407c0-.155-.0837-.2305-.2542-.2305a1.7982,1.7982,0,0,0-1.011.5317,7.3919,7.3919,0,0,0-1.2292,1.3764,5.7164,5.7164,0,0,0,1.77-.7553C65.1176,72.87,65.3579,72.5641,65.3579,72.2749Zm2.648-2.5084a7.74,7.74,0,0,1-1.7995,1.0058,5.1569,5.1569,0,0,1-.9651.3627.0575.0575,0,0,1-.0429-.0139c0-.0139.0289-.0368.0868-.0656A6.5536,6.5536,0,0,0,67.7038,69.31Z" transform="translate(0 0)"/><path class="cls-20" d="M68.643,71.948l-.0589.1083H67.635L66.0179,74.81a1.72,1.72,0,0,0-.2971.796c0,.2177.1137.324.342.324q.6594,0,2.2282-2.2947c.0339-.0487.0628-.0716.0878-.0716a.038.038,0,0,1,.0428.0428.7.7,0,0,1-.0718.1163l-.312.4273q-1.364,1.89-2.0548,1.8883a.7409.7409,0,0,1-.5693-.2465.8618.8618,0,0,1-.2293-.6132,2.2939,2.2939,0,0,1,.3849-1.0853l1.2193-2.0383h-.74l.0728-.1083h.7248l.8494-1.4013a1.6061,1.6061,0,0,0,.4138.0566,1.6339,1.6339,0,0,0,.4207-.0566l-.8345,1.4013h.9472Z" transform="translate(0 0)"/><path class="cls-21" d="M73.0566,73.5947a.1982.1982,0,0,1-.0728.13l-.312.4274q-1.3655,1.89-2.0329,1.8882a.7249.7249,0,0,1-.57-.2484.913.913,0,0,1-.2213-.6251,2.6128,2.6128,0,0,1,.5513-1.3238,5.4983,5.4983,0,0,0,.8624-1.5027c0-.1878-.0987-.2832-.2971-.2832-.29,0-.6859.2852-1.1894.8517a19.7292,19.7292,0,0,0-1.994,3.0957,1.97,1.97,0,0,0-.37-.0447,2.9053,2.9053,0,0,0-.4277.0447l1.0658-1.924c.1446-.2733.3679-.68.667-1.2154q.2392-.3906,1.4725-2.4866L71.29,68.5133a1.9706,1.9706,0,0,0,.37.0447,2.058,2.058,0,0,0,.5523-.0735q-.7553,1.2089-2.2492,3.6145-.0433.073-1.1236,1.8654,1.3624-2.0154,2.1535-2.0165a.6663.6663,0,0,1,.5324.2684.9882.9882,0,0,1,.2213.65,2.9667,2.9667,0,0,1-.6381,1.4381,3.9094,3.9094,0,0,0-.7109,1.3158.2752.2752,0,0,0,.3121.3111q.5667,0,1.8743-1.8247l.2253-.3111.13-.159c.025-.0487.0539-.0715.0878-.0715A.0264.0264,0,0,1,73.0566,73.5947Z" transform="translate(0 0)"/><path class="cls-22" d="M77.3635,73.6007c0,.0775-.1436.2584-.4277.5417a1.7844,1.7844,0,0,1-1.1764.633.878.878,0,0,1-.4-.0855q-.9557,1.3508-1.7995,1.3507a.9543.9543,0,0,1-.7438-.3568,1.2706,1.2706,0,0,1-.309-.8577,2.803,2.803,0,0,1,1.4655-2.1467,3.2244,3.2244,0,0,1,1.6969-.73c.4167,0,.6231.2217.6231.6659a3.5939,3.5939,0,0,1-.8764,2.0036.63.63,0,0,0,.3251.0854,1.41,1.41,0,0,0,.7636-.3031,2.6348,2.6348,0,0,0,.7129-.7274c.0528-.0657.0927-.0994.1156-.0994C77.3536,73.5729,77.3635,73.5828,77.3635,73.6007Zm-1.1794-.973c0-.3905-.1755-.5843-.5294-.5843-.4377,0-.976.4194-1.6091,1.2581a3.816,3.816,0,0,0-.9491,2.1179c0,.3319.1585.4989.4775.4989q.7821,0,1.7118-1.287a.7093.7093,0,0,1-.21-.4771,1.2305,1.2305,0,0,1,.2821-.7294.7576.7576,0,0,1,.5513-.3767c.0788,0,.1316.0487.16.1451A1.3383,1.3383,0,0,0,76.1841,72.6277Z" transform="translate(0 0)"/><path class="cls-23" d="M83.9575,68.559q-2.7187,4.31-3.4286,5.5068a4.8153,4.8153,0,0,0-.7178,1.5414c0,.2177.1.324.2981.324q.66,0,2.2432-2.2947c.0289-.0487.0569-.0716.08-.0716a.0382.0382,0,0,1,.0438.0427.7338.7338,0,0,1-.0727.1163l-.3121.4274q-1.3728,1.89-2.0248,1.8882a.6778.6778,0,0,1-.5454-.2484.9609.9609,0,0,1-.21-.641,2.0364,2.0364,0,0,1,.2612-.9024q-1.27,1.79-1.8863,1.7919a.797.797,0,0,1-.6451-.328,1.2938,1.2938,0,0,1-.26-.8289,2.68,2.68,0,0,1,1.4855-2.16,3.82,3.82,0,0,1,1.8564-.7742c.3,0,.45.1451.45.4333a1.08,1.08,0,0,1-.1236.4581l2.5891-4.3251a1.604,1.604,0,0,0,.4716.0716C83.5488,68.5868,83.6973,68.5789,83.9575,68.559Zm-3.4944,3.8829q0-.3846-.3549-.3846-.6535,0-1.7228,1.2989a3.7573,3.7573,0,0,0-1.0687,2.092c0,.322.1336.483.3978.483q.5817,0,1.9949-2.0085A3.5765,3.5765,0,0,0,80.4631,72.4419Z" transform="translate(0 0)"/><path class="cls-24" d="M86.1449,73.6156a.8926.8926,0,0,1-.1306.1878l-.312.3886Q84.2008,76.04,83.1261,76.04a1.1238,1.1238,0,0,1-.8525-.3647,1.28,1.28,0,0,1-.3449-.9143q0-1.3014,1.8195-2.2928a3.5292,3.5292,0,0,1,1.5592-.52.6727.6727,0,0,1,.4447.1551.48.48,0,0,1,.1854.3806c0,.3478-.2273.642-.6819.8855a8.9264,8.9264,0,0,1-2.2771.6837,2.4276,2.4276,0,0,0-.4925,1.2443q0,.62.675.6211,1.1486,0,2.81-2.23c.0578-.0775.1056-.1143.1445-.1143C86.1359,73.5768,86.1449,73.5908,86.1449,73.6156Zm-.6131-1.3407c0-.155-.0838-.2305-.2532-.2305a1.7967,1.7967,0,0,0-1.012.5317,7.3957,7.3957,0,0,0-1.2293,1.3764,5.717,5.717,0,0,0,1.77-.7553C85.2915,72.87,85.5318,72.5641,85.5318,72.2749Z" transform="translate(0 0)"/><path class="cls-25" d="M105.7744,67.0047c0,.26-.2632.481-.7846.6619a5.8865,5.8865,0,0,1-1.9142.2693,16.0681,16.0681,0,0,1-2.8274-.3111,5.2569,5.2569,0,0,0-1.6331,1.3705,14.8045,14.8045,0,0,0-1.5892,2.57,20.3809,20.3809,0,0,1-1.2442,2.2153,5.0306,5.0306,0,0,1-1.0837,1.0733A6.28,6.28,0,0,1,90.9194,76.2a3.0377,3.0377,0,0,1-1.7078-.44,1.3291,1.3291,0,0,1-.664-1.1409.9179.9179,0,0,1,.2114-.6073.6355.6355,0,0,1,.5005-.2544c.3141,0,.4716.165.4716.493a.5762.5762,0,0,1-.1456.3955.4549.4549,0,0,1-.3549.167.2974.2974,0,0,1-.341-.332c0-.1163-.0189-.1749-.0588-.1749-.0817,0-.1226.12-.1226.3548a1.1756,1.1756,0,0,0,.6042.99,2.6254,2.6254,0,0,0,1.49.4035,4.5747,4.5747,0,0,0,3.4884-1.7492,20.1333,20.1333,0,0,0,1.8714-2.6963,9.9952,9.9952,0,0,1,3.9111-4.012c-.2632-.0427-.654-.1222-1.1764-.2385a14.556,14.556,0,0,0-2.8214-.3956c-.0678,0-.2712.01-.6092.0288a3.0189,3.0189,0,0,1,.341,1.452,4.4846,4.4846,0,0,1-1.2113,2.9855,3.45,3.45,0,0,1-2.59,1.3953,1.2239,1.2239,0,0,1-.9321-.3806,1.3673,1.3673,0,0,1-.358-.978,3.5215,3.5215,0,0,1,.6271-1.8266,6.4988,6.4988,0,0,1,1.6241-1.7492,6.0484,6.0484,0,0,1,2.1874-1.0445,1.91,1.91,0,0,0-1.6311-.7722,3.6062,3.6062,0,0,0-1.8.5168,5.3712,5.3712,0,0,0-1.5992,1.4092c-.0667.0915-.1126.1382-.1375.1382a.0608.0608,0,0,1-.0588-.0448q0-.1223.5951-.7165a4.2343,4.2343,0,0,1,2.986-1.4192,2.1507,2.1507,0,0,1,1.8414.8467,8.0317,8.0317,0,0,1,3.09-.1809q.5115.0791,2.5244.491a8.0317,8.0317,0,0,1,3.2192-.73C105.245,66.3836,105.7744,66.5893,105.7744,67.0047ZM95.5255,68.09a2.21,2.21,0,0,0-.2682-1.0713A5.54,5.54,0,0,0,92.2325,68.69a4.0066,4.0066,0,0,0-1.3988,2.7618,1.2537,1.2537,0,0,0,.322.8736,1.0323,1.0323,0,0,0,.7936.3528,3.195,3.195,0,0,0,2.4017-1.5066A4.9787,4.9787,0,0,0,95.5255,68.09Zm10.1323-1.0713c0-.1382-.1386-.2564-.4108-.3528a3.1309,3.1309,0,0,0-1.0318-.1451,7.3114,7.3114,0,0,0-3.0109.6519c.1206.02.4437.0755.9661.173a11.026,11.026,0,0,0,2.0577.2255,2.802,2.802,0,0,0,1.0089-.1629C105.5172,67.2979,105.6578,67.17,105.6578,67.0186Z" transform="translate(0 0)"/><path class="cls-26" d="M101.621,73.6076a2.5662,2.5662,0,0,1-.4347.53,1.51,1.51,0,0,1-1.04.6093c-.3679,0-.5513-.2137-.5513-.6371a1.9466,1.9466,0,0,1,.0857-.5148,5.0839,5.0839,0,0,0-.7438.7881q-.2841.3906-.9909,1.5921c-.2553-.02-.4048-.0288-.4487-.0288-.0189,0-.1665.01-.4416.0288l1.1893-1.924a5.7269,5.7269,0,0,0,.8933-1.7939c0-.1341-.0568-.2017-.1655-.2017q-.4126,0-1.4775,1.5583c-.0438.0676-.0817.1014-.1166.1014a.039.039,0,0,1-.0289-.0428.12.12,0,0,1,.0289-.0586l.1316-.1829Q98.6291,71.946,99.03,71.946c.3879,0,.58.2484.58.7453a2.9966,2.9966,0,0,1-.5942,1.4729,5.7766,5.7766,0,0,1,.7168-.7066,3.6605,3.6605,0,0,1,.6859-1.0793,1.1246,1.1246,0,0,1,.7358-.4333c.15,0,.2263.0656.2263.1957q0,.3459-1.0089.99c-.1067.0676-.2672.167-.4786.2972l-.0857.0715a1.9647,1.9647,0,0,0-.1037.55c0,.4055.1535.6072.4576.6072q.5669,0,1.2362-.9352c.0977-.1063.1576-.159.1815-.159A.0408.0408,0,0,1,101.621,73.6076Z" transform="translate(0 0)"/><path class="cls-27" d="M106.7106,73.6076a6.9488,6.9488,0,0,1-1.06,1.4053Q104.7954,76.04,104.3,76.04a.678.678,0,0,1-.5434-.2484.9357.9357,0,0,1-.21-.6251,1.8651,1.8651,0,0,1,.2333-.8468,9.9544,9.9544,0,0,1-1.11,1.3645,1.1308,1.1308,0,0,1-.7477.3548.7926.7926,0,0,1-.6441-.3279,1.2836,1.2836,0,0,1-.2612-.8289q0-1.3863,1.9651-2.4577a3.1113,3.1113,0,0,1,1.3918-.4771.3913.3913,0,0,1,.45.4334,1.2329,1.2329,0,0,1-.0588.3259l.37-.7006a1.7665,1.7665,0,0,0,.3838.0507,3.449,3.449,0,0,0,.5085-.0507l-1.2831,2.1179a4.0665,4.0665,0,0,0-.668,1.4678c0,.2276.0957.34.2841.34.1924,0,.5025-.2216.9292-.6618a12.4353,12.4353,0,0,0,1.2991-1.6329c.0289-.0487.0568-.0716.08-.0716C106.6976,73.5649,106.7106,73.5788,106.7106,73.6076Zm-1.996-1.1975c0-.2345-.1086-.3528-.327-.3528q-.6684,0-1.7507,1.3009a3.77,3.77,0,0,0-1.0847,2.1039c0,.3121.1406.47.4207.47q.4995,0,1.7328-1.6557A4.3272,4.3272,0,0,0,104.7146,72.41Z" transform="translate(0 0)"/><path class="cls-28" d="M113.3086,68.559q-2.7187,4.31-3.4306,5.5068a4.8,4.8,0,0,0-.7168,1.5414c0,.2177.0977.324.2961.324q.6624,0,2.2432-2.2947c.0309-.0487.0588-.0716.08-.0716.0309,0,.0449.0139.0449.0427a.7812.7812,0,0,1-.0718.1163l-.312.4274q-1.373,1.89-2.0269,1.8882a.6751.6751,0,0,1-.5433-.2484.9506.9506,0,0,1-.21-.641,2.0232,2.0232,0,0,1,.2612-.9024q-1.2711,1.79-1.8873,1.7919a.7976.7976,0,0,1-.644-.328,1.2943,1.2943,0,0,1-.2612-.8289,2.6781,2.6781,0,0,1,1.4875-2.16,3.81,3.81,0,0,1,1.8553-.7742.3913.3913,0,0,1,.45.4333,1.0818,1.0818,0,0,1-.1247.4581l2.59-4.3251a1.598,1.598,0,0,0,.4715.0716C112.8958,68.5868,113.0474,68.5789,113.3086,68.559Zm-3.4954,3.8829q0-.3846-.3559-.3846-.6521,0-1.7218,1.2989a3.7576,3.7576,0,0,0-1.0688,2.092q0,.483.3988.483.5787,0,1.994-2.0085A3.6047,3.6047,0,0,0,109.8132,72.4419Z" transform="translate(0 0)"/><path class="cls-29" d="M114.3185,73.6076a.7859.7859,0,0,1-.0717.1163l-.3121.4274q-1.3638,1.89-2.0837,1.8882a.7445.7445,0,0,1-.57-.2425.834.834,0,0,1-.2283-.6012,2.9206,2.9206,0,0,1,.5005-1.2731l1.1315-1.9161a1.778,1.778,0,0,0,.354.0507,4.3857,4.3857,0,0,0,.5513-.0507l-1.645,2.6962a1.9734,1.9734,0,0,0-.3559.9044c0,.2177.1127.324.341.324q.6489,0,2.2721-2.2947c.0249-.0487.0508-.0716.0738-.0716A.0379.0379,0,0,1,114.3185,73.6076Zm-.1047-2.9884a.6675.6675,0,0,1-.2143.4741.6432.6432,0,0,1-.4676.2216.2891.2891,0,0,1-.327-.326.6489.6489,0,0,1,.2263-.46.6756.6756,0,0,1,.4716-.22A.2737.2737,0,0,1,114.2138,70.6192Z" transform="translate(0 0)"/><path class="cls-30" d="M117.0064,71.948l-.0588.1083h-.9482l-1.618,2.7539a1.7123,1.7123,0,0,0-.2981.796c0,.2177.1146.324.3409.324q.6625,0,2.2293-2.2947c.0349-.0487.0638-.0716.0877-.0716a.0377.0377,0,0,1,.0429.0428.7868.7868,0,0,1-.0718.1163l-.312.4273q-1.364,1.89-2.0568,1.8883a.7432.7432,0,0,1-.5683-.2465.8654.8654,0,0,1-.2283-.6132,2.2687,2.2687,0,0,1,.3839-1.0853l1.2193-2.0383h-.74l.0718-.1083h.7268l.8474-1.4013a1.5625,1.5625,0,0,0,.8335,0l-.8335,1.4013h.95Z" transform="translate(0 0)"/><path class="cls-31" d="M119.2645,73.6076a.7763.7763,0,0,1-.0717.1163l-.3131.4274q-1.3608,1.89-2.0837,1.8882a.7432.7432,0,0,1-.5682-.2425.8341.8341,0,0,1-.2284-.6012,2.9378,2.9378,0,0,1,.4985-1.2731l1.1336-1.9161a1.7592,1.7592,0,0,0,.3539.0507,4.3869,4.3869,0,0,0,.5514-.0507l-1.647,2.6962a1.9884,1.9884,0,0,0-.354.9044c0,.2177.1127.324.341.324q.6461,0,2.2721-2.2947c.0249-.0487.0508-.0716.0738-.0716A.0376.0376,0,0,1,119.2645,73.6076Zm-.1047-2.9884a.6671.6671,0,0,1-.2143.4741.6432.6432,0,0,1-.4676.2216.2891.2891,0,0,1-.327-.326.6412.6412,0,0,1,.2263-.46.6758.6758,0,0,1,.4716-.22A.2737.2737,0,0,1,119.16,70.6192Z" transform="translate(0 0)"/><path class="cls-32" d="M123.5725,73.6007q0,.1162-.4287.5417a1.7846,1.7846,0,0,1-1.1765.633.8788.8788,0,0,1-.3987-.0855q-.9557,1.3508-1.8,1.3507a.9555.9555,0,0,1-.7437-.3568,1.2744,1.2744,0,0,1-.3081-.8577,2.7965,2.7965,0,0,1,1.4646-2.1467,3.2269,3.2269,0,0,1,1.6978-.73q.6222,0,.6231.6659a3.5853,3.5853,0,0,1-.8783,2.0036.63.63,0,0,0,.327.0854,1.4106,1.4106,0,0,0,.7637-.3031,2.6471,2.6471,0,0,0,.7128-.7274c.0529-.0657.0918-.0994.1147-.0994C123.5625,73.5729,123.5725,73.5828,123.5725,73.6007Zm-1.1784-.973c0-.3905-.1775-.5843-.5294-.5843q-.66,0-1.6082,1.2581a3.8051,3.8051,0,0,0-.95,2.1179c0,.3319.16.4989.4776.4989q.7821,0,1.7118-1.287a.7089.7089,0,0,1-.21-.4771,1.2271,1.2271,0,0,1,.2842-.7294c.1874-.2505.37-.3767.5493-.3767.0778,0,.1326.0487.1615.1451A1.3835,1.3835,0,0,0,122.3941,72.6277Z" transform="translate(0 0)"/><path class="cls-33" d="M129.3938,73.6076a6.9739,6.9739,0,0,1-1.0518,1.4053c-.5762.6848-1.0278,1.0266-1.3588,1.0266a.7.7,0,0,1-.5474-.2524.9212.9212,0,0,1-.22-.6211,1.4,1.4,0,0,1,.1326-.6053,11.0906,11.0906,0,0,1,.7008-1.1,3.158,3.158,0,0,0,.5882-1.1062c0-.1978-.1046-.2971-.312-.2971q-1.0632,0-3.2631,3.9186c-.2393-.02-.38-.0288-.4287-.0288a3.82,3.82,0,0,0-.4786.0288l1.1316-1.7859a5.95,5.95,0,0,0,.9641-1.9161c0-.1451-.0608-.2176-.1815-.2176q-.3708,0-1.4625,1.5583c-.0429.0626-.0758.0954-.1017.1013-.023,0-.0369-.0159-.0429-.0427a.1127.1127,0,0,1,.0289-.0586l.1386-.1829c.7417-.99,1.2383-1.4848,1.4955-1.4848a.5209.5209,0,0,1,.4227.2256.833.833,0,0,1,.1735.5337,2.6581,2.6581,0,0,1-.5434,1.287,13.1,13.1,0,0,1,1.316-1.6129,1.318,1.318,0,0,1,.8525-.4334.6711.6711,0,0,1,.5353.26.9677.9677,0,0,1,.2184.644,3.2162,3.2162,0,0,1-.668,1.4808,3.71,3.71,0,0,0-.68,1.3029.2605.2605,0,0,0,.2961.2952q.6461,0,2.2293-2.2947c.0229-.0487.0488-.0716.0717-.0716C129.3809,73.5649,129.3938,73.5788,129.3938,73.6076Z" transform="translate(0 0)"/><path class="cls-34" d="M135.2032,73.6076a6.9426,6.9426,0,0,1-1.0538,1.4053q-.8613,1.0272-1.3569,1.0266a.7.7,0,0,1-.5473-.2524.9212.9212,0,0,1-.22-.6211,1.4011,1.4011,0,0,1,.1326-.6053,11.1184,11.1184,0,0,1,.7009-1.1,3.16,3.16,0,0,0,.5882-1.1062c0-.1978-.1047-.2971-.313-.2971q-1.0574,0-3.2611,3.9186c-.2393-.02-.38-.0288-.4287-.0288a3.82,3.82,0,0,0-.4786.0288l1.1316-1.7859a5.9756,5.9756,0,0,0,.9661-1.9161c0-.1451-.0628-.2176-.1835-.2176q-.3708,0-1.46,1.5583c-.0449.0626-.0778.0954-.1017.1013-.023,0-.0389-.0159-.0449-.0427a.1127.1127,0,0,1,.0289-.0586l.1386-.1829c.74-.99,1.24-1.4848,1.4955-1.4848a.5212.5212,0,0,1,.4227.2256.8349.8349,0,0,1,.1755.5337,2.646,2.646,0,0,1-.5454,1.287,13.1,13.1,0,0,1,1.316-1.6129,1.322,1.322,0,0,1,.8525-.4334.6711.6711,0,0,1,.5353.26.9677.9677,0,0,1,.2184.644,3.2066,3.2066,0,0,1-.666,1.4808,3.6746,3.6746,0,0,0-.684,1.3029.262.262,0,0,0,.2982.2952c.4307,0,1.1764-.7652,2.2272-2.2947.0269-.0487.0509-.0716.0738-.0716C135.1893,73.5649,135.2032,73.5788,135.2032,73.6076Z" transform="translate(0 0)"/><path class="cls-35" d="M138.8581,73.6156a.844.844,0,0,1-.1306.1878l-.312.3886Q136.911,76.04,135.8393,76.04a1.134,1.134,0,0,1-.8544-.3647,1.2824,1.2824,0,0,1-.343-.9143q0-1.3014,1.8205-2.2928a3.5146,3.5146,0,0,1,1.5593-.52.67.67,0,0,1,.4436.1551.4789.4789,0,0,1,.1874.3806c0,.3478-.2293.642-.6839.8855a8.9019,8.9019,0,0,1-2.2761.6837,2.4187,2.4187,0,0,0-.4925,1.2443q0,.62.674.6211,1.1486,0,2.8095-2.23c.0588-.0775.1066-.1143.1445-.1143C138.85,73.5768,138.8581,73.5908,138.8581,73.6156Zm-.6121-1.3407c0-.155-.0857-.2305-.2552-.2305a1.81,1.81,0,0,0-1.0129.5317,7.3846,7.3846,0,0,0-1.2263,1.3764,5.7373,5.7373,0,0,0,1.77-.7553C138.0047,72.87,138.246,72.5641,138.246,72.2749Z" transform="translate(0 0)"/><path class="cls-36" d="M142.6626,68.4855q-3.0462,5.055-3.55,5.9431a3.3355,3.3355,0,0,0-.5045,1.1786c0,.2177.0917.324.2762.324q.6071,0,2.2352-2.2947c.0249-.0487.0548-.0716.0877-.0716.02.004.0289.02.0289.0428,0,.0288-.0229.0676-.0737.1163l-.3121.4273q-1.37,1.89-2.0248,1.8883a.6458.6458,0,0,1-.5125-.2346.89.89,0,0,1-.1984-.5963,1.7164,1.7164,0,0,1,.1834-.77q.1871-.3726,1.26-2.1506,1.3116-2.175,2.2123-3.7736a1.5041,1.5041,0,0,0,.3839.0587A1.4305,1.4305,0,0,0,142.6626,68.4855Z" transform="translate(0 0)"/><path class="cls-37" d="M145.04,68.4855q-3.0432,5.055-3.55,5.9431a3.3428,3.3428,0,0,0-.5045,1.1786c0,.2177.0937.324.2762.324q.61,0,2.2372-2.2947c.0229-.0487.0528-.0716.0857-.0716.0209.004.0289.02.0289.0428a.1954.1954,0,0,1-.0718.1163l-.312.4273q-1.3728,1.89-2.0268,1.8883a.639.639,0,0,1-.5105-.2346.8913.8913,0,0,1-.2-.5963,1.7175,1.7175,0,0,1,.1855-.77q.1839-.3726,1.26-2.1506,1.3114-2.175,2.21-3.7736a1.5111,1.5111,0,0,0,.3858.0587A1.4156,1.4156,0,0,0,145.04,68.4855Z" transform="translate(0 0)"/><path class="cls-38" d="M147.27,73.6156a.8468.8468,0,0,1-.1307.1878l-.312.3886q-1.5045,1.8485-2.5762,1.8475a1.1266,1.1266,0,0,1-.8524-.3647,1.28,1.28,0,0,1-.345-.9143q0-1.3014,1.82-2.2928a3.5219,3.5219,0,0,1,1.5592-.52.67.67,0,0,1,.4437.1551.477.477,0,0,1,.1855.3806c0,.3478-.2264.642-.682.8855a8.9152,8.9152,0,0,1-2.2761.6837,2.4187,2.4187,0,0,0-.4925,1.2443q0,.62.674.6211,1.1455,0,2.81-2.23c.0568-.0775.1066-.1143.1445-.1143C147.2617,73.5768,147.27,73.5908,147.27,73.6156Zm-.6112-1.3407c0-.155-.0857-.2305-.2552-.2305a1.8008,1.8008,0,0,0-1.011.5317,7.2505,7.2505,0,0,0-1.2282,1.3764,5.704,5.704,0,0,0,1.7676-.7553C146.4153,72.87,146.6585,72.5641,146.6585,72.2749Z" transform="translate(0 0)"/><path class="cls-39" d="M56.9105,105.3425H53.27v2.0145a.3952.3952,0,0,0,.0488.2286.3722.3722,0,0,0,.2.1043v.1243h-1.11V107.69a.375.375,0,0,0,.2-.1043.3974.3974,0,0,0,.0488-.2286v-4.3828a.3926.3926,0,0,0-.0508-.2306.3337.3337,0,0,0-.1984-.1033v-.1243h1.11v.1243a.3534.3534,0,0,0-.1984.1043.3832.3832,0,0,0-.0508.2286v1.8635h3.6409v-1.8635a.392.392,0,0,0-.0508-.2305.3342.3342,0,0,0-.1984-.1034v-.1242h1.11v.1242a.3528.3528,0,0,0-.1984.1044.3828.3828,0,0,0-.0508.2286v4.3827a.3962.3962,0,0,0,.0508.2276.3637.3637,0,0,0,.1984.1064v.1242h-1.11v-.1242a.38.38,0,0,0,.1984-.1044.3872.3872,0,0,0,.0508-.2286Z" transform="translate(0 0)"/><path class="cls-39" d="M63.5215,106.5927H61.2334l-.329.73a.5408.5408,0,0,0-.0628.2017c0,.0875.0678.1491.2034.1869v.1043H59.97v-.1043a.4365.4365,0,0,0,.2432-.1223,1.4879,1.4879,0,0,0,.2084-.3627l1.4446-3.1286a1.0856,1.0856,0,0,0,.1206-.3568q0-.1371-.1944-.1669v-.1044h1.2662v.1044c-.13.0268-.1944.0835-.1944.1669a1.7031,1.7031,0,0,0,.1555.4155l1.3868,3.0083a1.8616,1.8616,0,0,0,.2413.4114.4291.4291,0,0,0,.2572.1362v.1043H63.77v-.1043c.1217-.0269.1825-.07.1825-.1322a1.0274,1.0274,0,0,0-.0937-.2564Zm-.1825-.4234-.9521-2.1327-.9631,2.1327Z" transform="translate(0 0)"/><path class="cls-39" d="M67.66,104.1469v3.23a.4063.4063,0,0,0,.0489.2276.36.36,0,0,0,.2.1064v.1043h-.9621v-.1043a.3619.3619,0,0,0,.2-.1064.404.404,0,0,0,.0489-.2276v-3.47a.381.381,0,0,0-.0509-.2286.3516.3516,0,0,0-.1984-.1044v-.1043h1.4177v.1043c-.1346.0428-.2024.11-.2024.2018a.4574.4574,0,0,0,.1476.2793l2.5742,2.8731v-3.02a.3806.3806,0,0,0-.0509-.2286.351.351,0,0,0-.1984-.1044V103.47h.9621v.1044a.3534.3534,0,0,0-.1984.1044.3828.3828,0,0,0-.0508.2286v3.47a.4064.4064,0,0,0,.0488.2276.36.36,0,0,0,.2.1063v.1044H70.4555v-.1044c.1346-.0348.2024-.0874.2024-.159,0-.0546-.0628-.1511-.1875-.2912Z" transform="translate(0 0)"/><path class="cls-39" d="M74.3766,107.3768v-3.47a.3976.3976,0,0,0-.0489-.2276.3366.3366,0,0,0-.2-.1063v-.1044h2.2043a3.191,3.191,0,0,1,1.3161.2057,1.8336,1.8336,0,0,1,.8414.8617,2.4426,2.4426,0,0,1-.0857,2.3683,1.7133,1.7133,0,0,1-.7687.7066,3.33,3.33,0,0,1-1.3031.2057H74.1273v-.1044a.3619.3619,0,0,0,.2-.1063A.4123.4123,0,0,0,74.3766,107.3768Zm.5563.0159H76.3a2.3288,2.3288,0,0,0,1.1335-.21,1.3872,1.3872,0,0,0,.5922-.7225,2.2613,2.2613,0,0,0,.1446-.8189,1.89,1.89,0,0,0-.4088-1.2731A1.213,1.213,0,0,0,77.202,104a2.9706,2.9706,0,0,0-.9013-.1083H74.9339v3.5012Z" transform="translate(0 0)"/><path class="cls-39" d="M89.3861,105.3425h-3.641v2.0145a.3951.3951,0,0,0,.0489.2286.3722.3722,0,0,0,.2.1043v.1243h-1.11V107.69a.375.375,0,0,0,.2-.1043.3972.3972,0,0,0,.0489-.2286v-4.3828a.3925.3925,0,0,0-.0509-.2306.3337.3337,0,0,0-.1984-.1033v-.1243h1.11v.1243a.3534.3534,0,0,0-.1984.1043.3831.3831,0,0,0-.0509.2286v1.8635h3.641v-1.8635a.392.392,0,0,0-.0508-.2305.3342.3342,0,0,0-.1984-.1034v-.1242h1.11v.1242a.3528.3528,0,0,0-.1984.1044.3828.3828,0,0,0-.0508.2286v4.3827a.3962.3962,0,0,0,.0508.2276.3637.3637,0,0,0,.1984.1064v.1242h-1.11v-.1242a.38.38,0,0,0,.1984-.1044.3872.3872,0,0,0,.0508-.2286Z" transform="translate(0 0)"/><path class="cls-39" d="M95.997,106.5927H93.709l-.329.73a.5607.5607,0,0,0-.0628.2017c0,.0875.0678.1491.2024.1869v.1043H92.4448v-.1043a.4364.4364,0,0,0,.2433-.1223,1.4555,1.4555,0,0,0,.2084-.3627l1.4446-3.1286a1.0882,1.0882,0,0,0,.1206-.3568c0-.0914-.0638-.1471-.1944-.1669v-.1044h1.2662v.1044c-.13.0268-.1945.0835-.1945.1669a1.7542,1.7542,0,0,0,.1556.4155l1.3868,3.0083a1.9029,1.9029,0,0,0,.2412.4114.4294.4294,0,0,0,.2573.1362v.1043H96.2443v-.1043c.1216-.0269.1834-.07.1834-.1322a1.0274,1.0274,0,0,0-.0937-.2564Zm-.1814-.4234-.9521-2.1327L93.9,106.1693Z" transform="translate(0 0)"/><path class="cls-39" d="M100.2282,105.8473v1.5295a.4043.4043,0,0,0,.0509.2276.3756.3756,0,0,0,.1984.1064v.1043H99.4217v-.1043a.3546.3546,0,0,0,.2-.1064.4041.4041,0,0,0,.0488-.2276v-3.47a.3739.3739,0,0,0-.0508-.2286.348.348,0,0,0-.1984-.1044v-.1043h2.59a3.3043,3.3043,0,0,1,.7189.0626,1.26,1.26,0,0,1,.4845.21,1.0637,1.0637,0,0,1,.4516.9322,1.02,1.02,0,0,1-.315.79,1.56,1.56,0,0,1-.9272.3478l1.0947,1.7313a.3706.3706,0,0,0,.1146.12.6659.6659,0,0,0,.2.0507v.1044h-1.0787v-.1044c.1016-.0209.1515-.0547.1515-.0974a.4764.4764,0,0,0-.09-.1868l-1.003-1.58h-1.5862Zm0-.4233h1.659a4.657,4.657,0,0,0,.6022-.0288,1.0511,1.0511,0,0,0,.341-.1064.62.62,0,0,0,.308-.5943.7029.7029,0,0,0-.2881-.6132,1.579,1.579,0,0,0-.8993-.19h-1.7218v1.5325Z" transform="translate(0 0)"/><path class="cls-39" d="M107.9867,107.196l1.3958-3.1852a.5527.5527,0,0,0,.0588-.2217c0-.1222-.0758-.1938-.2293-.2176v-.1044h1.0827v.1044a.4645.4645,0,0,0-.2433.14,2.3782,2.3782,0,0,0-.2263.4383l-1.3319,3.0242a.888.888,0,0,0-.0937.322c0,.1123.0717.1849.2183.2137v.1044h-1.3459V107.71c.1445-.0308.2183-.1044.2183-.2177a.8748.8748,0,0,0-.0977-.318l-1.3708-3.0242a2.2171,2.2171,0,0,0-.2333-.4423.4589.4589,0,0,0-.2413-.1361v-.1044h1.2073v.1044c-.1535.0248-.2293.0954-.2293.21a.5894.5894,0,0,0,.0588.2286Z" transform="translate(0 0)"/><path class="cls-39" d="M113.3006,105.7808v1.611h2.6949a.408.408,0,0,0,.2313-.0507.34.34,0,0,0,.1036-.1978h.1087v.92H116.33a.3422.3422,0,0,0-.1016-.1978.383.383,0,0,0-.2294-.0507h-3.5053v-.1043a.3619.3619,0,0,0,.2-.1064.4217.4217,0,0,0,.0488-.2276v-3.47a.3886.3886,0,0,0-.0508-.2286.3626.3626,0,0,0-.1984-.1044v-.1043h3.4774a.3962.3962,0,0,0,.2294-.0507.389.389,0,0,0,.1047-.1978h.1046v.92h-.1046a.3809.3809,0,0,0-.1047-.2.4005.4005,0,0,0-.2294-.0488H113.3V105.36h1.7019a.3958.3958,0,0,0,.2293-.0507.3871.3871,0,0,0,.1047-.1977h.1047v.92h-.1047a.3672.3672,0,0,0-.1067-.2.4073.4073,0,0,0-.2283-.0487h-1.7Z" transform="translate(0 0)"/><path class="cls-39" d="M122.9922,103.6927l-.4287.8468-.0937-.0468a1.004,1.004,0,0,0,.02-.155c0-.0626-.0838-.1381-.2533-.2256a2.7414,2.7414,0,0,0-1.309-.2872,2.2181,2.2181,0,0,0-1.0518.2286.714.714,0,0,0-.4327.648.5657.5657,0,0,0,.1087.3359.5869.5869,0,0,0,.2921.2117,1.8233,1.8233,0,0,0,.3968.0815c.1426.0119.45.0268.9192.0467a6.43,6.43,0,0,1,.89.0735,1.5862,1.5862,0,0,1,.5165.175.903.903,0,0,1,.3619.3706,1.091,1.091,0,0,1,.1326.53,1.1284,1.1284,0,0,1-.4945.9591,2.6577,2.6577,0,0,1-1.5733.4233,3.8805,3.8805,0,0,1-1.0149-.1471,4.4431,4.4431,0,0,1-.987-.4035.1905.1905,0,0,0-.0937-.0387c-.0389,0-.0977.0447-.1755.1361l-.09-.0586.4945-.8269.0937.0547c-.0079.0308-.0139.0507-.0159.0626a.314.314,0,0,0-.02.1014c0,.0715.1326.1788.3968.318a2.95,2.95,0,0,0,1.3907.3528,2.375,2.375,0,0,0,1.0947-.2256.904.904,0,0,0,.335-.2932.6789.6789,0,0,0,.1246-.3866.5732.5732,0,0,0-.3808-.5436,1.6857,1.6857,0,0,0-.356-.0775c-.13-.0149-.3778-.0308-.7417-.0428-.4287-.02-.7338-.0407-.9192-.0636a2.5225,2.5225,0,0,1-.5214-.1262,1.0758,1.0758,0,0,1-.5025-.3647,1.0172,1.0172,0,0,1-.1905-.6132,1.1013,1.1013,0,0,1,.5683-.9819,2.7189,2.7189,0,0,1,1.4756-.3648,4.0157,4.0157,0,0,1,1.643.3648.8576.8576,0,0,0,.1446.0507c.0408,0,.0917-.0488.1475-.1441Z" transform="translate(0 0)"/><path class="cls-39" d="M127.5425,103.9143v3.4625a.4064.4064,0,0,0,.0488.2276.36.36,0,0,0,.2.1064v.1043h-1.0558v-.1043a.3624.3624,0,0,0,.1984-.1064.402.402,0,0,0,.0509-.2276v-3.4625h-1.4217a.3979.3979,0,0,0-.2293.0487.3588.3588,0,0,0-.1047.2h-.1047v-.92h.1047a.3626.3626,0,0,0,.1047.1978.3978.3978,0,0,0,.2293.0507h3.4a.3958.3958,0,0,0,.2293-.0507.3606.3606,0,0,0,.1047-.1978h.1047v.92h-.1047a.3552.3552,0,0,0-.1067-.2.3973.3973,0,0,0-.2283-.0487Z" transform="translate(0 0)"/><path class="cls-39" d="M132.4207,105.7808v1.611h2.6948a.4033.4033,0,0,0,.2313-.0507.33.33,0,0,0,.1037-.1978h.1087v.92h-.1087a.3316.3316,0,0,0-.1017-.1978.3786.3786,0,0,0-.2293-.0507h-3.5054v-.1043a.3546.3546,0,0,0,.2-.1064.404.404,0,0,0,.0489-.2276v-3.47a.3738.3738,0,0,0-.0509-.2286.348.348,0,0,0-.1984-.1044v-.1043h3.4775a.3914.3914,0,0,0,.2293-.0507.3606.3606,0,0,0,.1047-.1978h.1047v.92h-.1047a.3541.3541,0,0,0-.1047-.2.3958.3958,0,0,0-.2293-.0488H132.42V105.36h1.7018a.3914.3914,0,0,0,.2293-.0507.36.36,0,0,0,.1047-.1977h.1047v.92h-.1047a.3438.3438,0,0,0-.1066-.2.3991.3991,0,0,0-.2284-.0487h-1.7Z" transform="translate(0 0)"/><path class="cls-39" d="M138.2131,107.3768v-3.47a.3968.3968,0,0,0-.0489-.2276.33.33,0,0,0-.2-.1063v-.1044h2.2044a3.1873,3.1873,0,0,1,1.316.2057,1.8336,1.8336,0,0,1,.8414.8617,2.4426,2.4426,0,0,1-.0857,2.3683,1.7083,1.7083,0,0,1-.7687.7066,3.3256,3.3256,0,0,1-1.303.2057h-2.2044v-.1044a.3546.3546,0,0,0,.2-.1063A.4115.4115,0,0,0,138.2131,107.3768Zm.5573.0159h1.3669a2.3209,2.3209,0,0,0,1.1335-.21,1.378,1.378,0,0,0,.5922-.7225,2.22,2.22,0,0,0,.1446-.8189,1.89,1.89,0,0,0-.4088-1.2731A1.2079,1.2079,0,0,0,141.04,104a2.9659,2.9659,0,0,0-.9012-.1083h-1.3669v3.5012Z" transform="translate(0 0)"/></svg>